<svg width="1731" height="351" viewBox="0 0 1731 351" fill="none" xmlns="http://www.w3.org/2000/svg">
<path d="M380 36.5V0C380 0 323.5 5.20141 271.5 47.5C219.5 89.7986 206 136 206 136V149C206 149 229 101 281 70.5C333 40 380 36.5 380 36.5Z" fill="black"/>
<path d="M32 36.5V0C32 0 88.5 5.20141 140.5 47.5C192.5 89.7986 206 136 206 136V149C206 149 183 101 131 70.5C79 40 32 36.5 32 36.5Z" fill="black"/>
<path d="M0.943529 56.0828C3.29466 56.0597 5.64556 56.043 7.99675 56.0298C9.30601 56.02 10.6153 56.0101 11.9642 56C18.1868 56.1294 24.1978 57.0727 30.3185 58.1453C31.6107 58.3679 32.9029 58.5905 34.2343 58.8198C81.8307 67.2638 123.546 88.4122 158.944 121.083C159.952 121.989 160.961 122.894 161.971 123.798C167.014 128.329 171.896 132.877 176.256 138.087C178.145 140.321 180.136 142.442 182.131 144.583C190.152 153.457 197.021 163.344 203.944 173.083C207.352 169.994 210.015 166.702 212.694 162.958C219.493 153.453 227.064 144.699 234.944 136.083C235.821 135.101 236.699 134.118 237.604 133.106C243.37 126.675 249.345 120.671 255.944 115.083C256.788 114.362 256.788 114.362 257.649 113.627C296.3 80.7955 349.316 55.7592 400.865 56.0437C401.893 56.0479 401.893 56.0479 402.941 56.0523C404.609 56.0595 406.276 56.0707 407.944 56.0828C408.127 85.8242 408.268 115.566 408.352 145.308C408.362 148.828 408.372 152.349 408.383 155.869C408.385 156.57 408.387 157.271 408.389 157.993C408.424 169.303 408.487 180.613 408.561 191.923C408.636 203.55 408.679 215.176 408.696 226.803C408.707 233.325 408.731 239.846 408.789 246.368C408.844 252.52 408.86 258.671 408.848 264.823C408.851 267.068 408.866 269.313 408.897 271.557C409.196 294.37 401.527 314.537 385.795 331.419C374.508 341.563 353.339 350.083 337.944 350.083C337.944 283.093 337.944 216.103 337.944 147.083C323.17 156.316 310.293 165.629 297.783 177.43C295.591 179.478 293.384 181.43 291.069 183.333C287.985 185.932 285.408 188.843 282.803 191.915C280.865 194.174 278.846 196.341 276.819 198.52C238.676 240.887 217.361 294.15 204.944 349.083C202.976 346.131 202.469 344.551 201.787 341.157C201.575 340.148 201.363 339.139 201.144 338.1C200.913 337.001 200.682 335.902 200.444 334.77C191.934 296.444 176.157 259.476 153.944 227.083C153.522 226.463 153.101 225.844 152.667 225.205C146.619 216.357 139.989 208.152 132.944 200.083C132.305 199.344 131.667 198.606 131.01 197.844C129.334 195.913 127.64 193.997 125.944 192.083C125.236 191.271 124.528 190.459 123.799 189.622C119.76 185.039 115.68 180.767 111.002 176.837C109.587 175.631 108.205 174.386 106.854 173.11C101.516 168.083 95.877 163.694 89.9435 159.395C89.2083 158.861 88.473 158.326 87.7155 157.776C82.2567 153.873 76.7396 150.56 70.9435 147.083C70.9435 214.073 70.9435 281.063 70.9435 350.083C53.4167 346.577 53.4167 346.577 47.1935 344.27C46.1301 343.882 46.1301 343.882 45.0451 343.487C25.0946 336.001 14.7657 323.514 5.70995 304.778C0.186733 292.579 -0.147013 281.486 0.035326 268.262C0.0375882 265.934 0.036305 263.606 0.031786 261.278C0.0295101 255.019 0.076224 248.76 0.132378 242.501C0.182717 235.937 0.187113 229.374 0.196581 222.81C0.217212 211.813 0.268359 200.816 0.340014 189.819C0.413674 178.503 0.470189 167.186 0.504076 155.869C0.506178 155.169 0.50828 154.469 0.510445 153.748C0.520887 150.236 0.530996 146.724 0.54094 143.212C0.623602 114.169 0.764869 85.1257 0.943529 56.0828Z" fill="black"/>
<path d="M578.271 275.329L551.995 276.224C547.969 276.373 544.391 276.634 541.26 277.006C538.204 277.379 535.595 277.789 533.433 278.236L532.762 277.118C534.253 274.956 534.999 271.006 534.999 265.266V147.299C534.999 142.23 534.775 138.019 534.328 134.664C533.88 131.31 533.023 128.663 531.756 126.725C530.563 124.712 528.886 123.333 526.724 122.588C524.637 121.768 522.363 121.358 519.903 121.358C517.443 121.358 515.915 121.395 515.319 121.47L514.872 118.227C523.891 117.034 532.762 115.991 541.484 115.096C550.28 114.202 556.244 113.717 559.375 113.643C562.505 113.493 565.524 113.419 568.432 113.419C576.557 113.419 583.75 113.941 590.012 114.984C596.348 115.953 601.641 117.593 605.89 119.904C610.214 122.215 613.494 125.234 615.73 128.961C617.966 132.614 619.084 137.124 619.084 142.491C619.084 147.113 618.19 151.511 616.401 155.686C614.612 159.86 612.115 163.736 608.909 167.314C605.778 170.893 602.088 174.135 597.839 177.042C593.59 179.95 589.006 182.41 584.086 184.422V185.317C589.9 186.062 595.566 187.367 601.082 189.23C606.673 191.094 611.63 193.703 615.954 197.058C620.277 200.338 623.743 204.438 626.353 209.357C628.962 214.203 630.266 220.017 630.266 226.801C630.266 234.777 628.738 241.821 625.682 247.934C622.7 253.972 618.749 259.041 613.829 263.141C608.909 267.167 603.318 270.223 597.057 272.31C590.869 274.323 584.608 275.329 578.271 275.329ZM552.218 129.185V268.956L571.451 269.85C583.825 270.446 593.777 267.465 601.306 260.905C608.909 254.27 612.711 244.17 612.711 230.603C612.711 223.521 611.332 217.259 608.574 211.817C605.816 206.301 601.977 201.903 597.057 198.623C592.211 195.343 586.658 192.883 580.396 191.243C574.134 189.603 567.276 188.858 559.822 189.007V184.199C566.903 184.05 573.575 182.521 579.837 179.614C586.099 176.707 591.317 172.309 595.491 166.42C599.74 160.456 601.865 153.561 601.865 145.734C601.865 138.95 600.448 133.732 597.616 130.08C594.858 126.427 591.168 123.855 586.546 122.364C581.924 120.873 576.594 120.202 570.556 120.352C564.518 120.501 558.256 121.022 551.771 121.917C551.696 121.917 551.622 121.917 551.547 121.917C551.995 124.377 552.218 126.8 552.218 129.185ZM707.755 159.711C724.9 159.711 738.355 164.966 748.121 175.477C757.886 185.988 762.769 200.636 762.769 219.421C762.769 230.304 760.271 240.442 755.277 249.835C750.282 259.228 743.499 266.719 734.926 272.31C726.354 277.826 717.073 280.584 707.084 280.584C689.864 280.584 676.372 275.404 666.606 265.042C656.916 254.606 652.07 239.846 652.07 220.763C652.07 209.432 654.568 199.108 659.562 189.79C664.556 180.397 671.303 173.054 679.801 167.762C688.373 162.395 697.691 159.711 707.755 159.711ZM705.519 167.426C699.63 167.426 694.523 168.284 690.2 169.998C685.876 171.713 682.41 174.023 679.801 176.931C677.192 179.838 675.104 183.528 673.539 188C671.974 192.473 670.893 197.058 670.296 201.754C669.775 206.45 669.514 211.892 669.514 218.079C669.514 227.919 670.669 236.529 672.98 243.909C675.365 251.214 678.534 256.917 682.484 261.017C686.435 265.042 690.647 268.024 695.12 269.962C699.592 271.826 704.326 272.757 709.32 272.757C715.135 272.757 720.204 271.863 724.527 270.074C728.925 268.21 732.429 265.825 735.038 262.917C737.647 259.936 739.734 256.208 741.3 251.736C742.865 247.189 743.909 242.604 744.431 237.982C745.027 233.361 745.325 228.105 745.325 222.216C745.325 213.942 744.542 206.562 742.977 200.077C741.412 193.591 739.324 188.336 736.715 184.311C734.181 180.285 731.125 176.968 727.546 174.359C724.043 171.75 720.502 169.961 716.924 168.992C713.346 167.948 709.544 167.426 705.519 167.426ZM841.264 159.711C858.409 159.711 871.864 164.966 881.629 175.477C891.395 185.988 896.277 200.636 896.277 219.421C896.277 230.304 893.78 240.442 888.786 249.835C883.791 259.228 877.008 266.719 868.435 272.31C859.862 277.826 850.582 280.584 840.593 280.584C823.373 280.584 809.881 275.404 800.115 265.042C790.424 254.606 785.579 239.846 785.579 220.763C785.579 209.432 788.076 199.108 793.071 189.79C798.065 180.397 804.812 173.054 813.31 167.762C821.882 162.395 831.2 159.711 841.264 159.711ZM839.027 167.426C833.138 167.426 828.032 168.284 823.708 169.998C819.385 171.713 815.919 174.023 813.31 176.931C810.701 179.838 808.613 183.528 807.048 188C805.482 192.473 804.402 197.058 803.805 201.754C803.283 206.45 803.022 211.892 803.022 218.079C803.022 227.919 804.178 236.529 806.489 243.909C808.874 251.214 812.042 256.917 815.993 261.017C819.944 265.042 824.156 268.024 828.628 269.962C833.101 271.826 837.835 272.757 842.829 272.757C848.644 272.757 853.713 271.863 858.036 270.074C862.434 268.21 865.938 265.825 868.547 262.917C871.156 259.936 873.243 256.208 874.809 251.736C876.374 247.189 877.418 242.604 877.939 237.982C878.536 233.361 878.834 228.105 878.834 222.216C878.834 213.942 878.051 206.562 876.486 200.077C874.92 193.591 872.833 188.336 870.224 184.311C867.69 180.285 864.633 176.968 861.055 174.359C857.552 171.75 854.011 169.961 850.433 168.992C846.854 167.948 843.053 167.426 839.027 167.426ZM933.512 130.862C933.512 120.277 932.245 113.195 929.71 109.617C927.25 105.965 921.958 104.399 913.833 104.921L913.385 102.908C925.685 99.2555 936.979 97.4292 947.266 97.4292C948.831 101.306 949.614 105.555 949.614 110.176V255.873C949.614 261.762 950.993 266.123 953.751 268.956C956.509 271.788 961.392 273.838 968.399 275.105L967.504 277.789C958.932 276.596 952.036 276 946.818 276C942.718 276 937.761 276.596 931.947 277.789L931.276 276.671C932.767 274.509 933.512 270.558 933.512 264.818V130.862ZM999.931 270.745L958.559 216.29V213.718L999.931 172.011C1002.02 169.7 1001.24 167.948 997.583 166.755C994.303 165.637 989.607 165.339 983.494 165.861L982.823 163.065C992.365 161.127 1003.43 160.009 1016.03 159.711L1017.82 163.065L971.306 209.581C1000.23 245.884 1016.37 265.266 1019.72 267.726C1023.08 270.111 1027.25 271.863 1032.25 272.981L1032.02 276.447C1019.8 275.553 1010.55 276 1004.29 277.789L1002.73 276.895C1002.88 275.255 1001.94 273.205 999.931 270.745ZM1198.18 120.463C1203.55 116.513 1209.36 114.015 1215.62 112.972L1230.5 255.873C1230.94 261.911 1232.51 266.197 1235.19 268.732C1237.88 271.192 1242.72 272.683 1249.73 273.205L1249.06 276C1240.49 275.776 1233.81 275.851 1229.04 276.224C1224.27 276.596 1219.2 277.677 1213.84 279.466L1213.05 278.236C1214.47 275.851 1214.88 271.9 1214.28 266.384L1201.2 136.341L1143.73 280.361L1135.9 276.671C1135.6 271.378 1133.48 263.887 1129.53 254.196L1078.43 141.149L1065.34 260.458C1065.05 263.067 1065.23 265.191 1065.9 266.831C1066.65 268.396 1068.36 269.887 1071.05 271.304C1073.8 272.646 1077.87 273.838 1083.23 274.882L1082.79 276.895C1070.56 276 1061.02 275.702 1054.16 276C1053.57 275.404 1053.12 274.658 1052.82 273.764L1069.7 127.396C1067.62 125.681 1065.05 124.787 1061.99 124.712C1058.93 124.563 1056.03 124.824 1053.27 125.495L1051.93 123.259C1063.03 116.997 1073.17 113.866 1082.34 113.866C1084.13 117.892 1094.16 140.255 1112.42 180.956C1130.76 221.657 1141.64 245.623 1145.07 252.854L1198.18 120.463ZM1360.76 263.365C1360.76 264.632 1361.02 265.825 1361.55 266.943C1362.14 267.986 1362.81 268.881 1363.56 269.626C1364.38 270.297 1365.53 270.968 1367.02 271.639C1368.52 272.31 1369.82 272.832 1370.94 273.205C1372.06 273.577 1373.62 274.062 1375.63 274.658L1374.74 277.342C1369.97 276.447 1365.24 276 1360.54 276C1354.65 276 1348.84 276.596 1343.1 277.789L1342.42 276.671C1343.99 274.509 1344.77 270.558 1344.77 264.818V257.438C1341.05 264.371 1335.23 269.962 1327.33 274.211C1319.5 278.46 1311.56 280.584 1303.51 280.584C1294.94 280.584 1288.01 278.385 1282.71 273.987C1277.5 269.515 1274.89 262.917 1274.89 254.196C1274.89 248.53 1276.04 243.499 1278.35 239.101C1280.74 234.628 1283.87 230.863 1287.75 227.807C1291.7 224.676 1296.73 221.918 1302.84 219.533C1309.03 217.147 1315.37 215.209 1321.85 213.718C1328.41 212.227 1336.05 210.848 1344.77 209.581V199.294C1344.77 178.794 1336.68 168.544 1320.51 168.544C1315.29 168.544 1308.88 169.849 1301.28 172.458C1293.75 174.993 1287.41 178.347 1282.27 182.521L1277.68 177.266C1284.17 172.123 1291.85 167.874 1300.72 164.519C1309.66 161.165 1318.01 159.487 1325.76 159.487C1329.19 159.487 1332.44 159.823 1335.49 160.494C1338.62 161.09 1341.75 162.245 1344.88 163.96C1348.09 165.6 1350.81 167.724 1353.05 170.333C1355.36 172.868 1357.22 176.297 1358.64 180.621C1360.05 184.87 1360.76 189.715 1360.76 195.157V263.365ZM1308.77 272.086C1315.25 272.086 1322.04 269.962 1329.12 265.713C1336.2 261.389 1341.42 256.022 1344.77 249.611V215.507C1325.69 218.265 1312.05 222.514 1303.85 228.254C1295.72 233.92 1291.66 242.194 1291.66 253.078C1291.66 259.712 1293.08 264.557 1295.91 267.614C1298.74 270.596 1303.03 272.086 1308.77 272.086ZM1429.08 245.139C1429.08 255.277 1430.2 262.284 1432.44 266.16C1434.67 269.962 1438.29 271.863 1443.28 271.863C1448.72 271.863 1455.36 269.813 1463.19 265.713L1466.65 270.521C1454.35 277.23 1444.29 280.584 1436.46 280.584C1432.29 280.584 1428.9 280.212 1426.29 279.466C1423.68 278.721 1421.29 277.267 1419.13 275.105C1416.97 272.944 1415.4 269.776 1414.43 265.601C1413.54 261.352 1413.09 255.873 1413.09 249.164V173.353L1396.32 174.359V167.203C1402.21 165.935 1407.8 165.115 1413.09 164.743V148.865C1419.43 145.287 1424.61 140.18 1428.64 133.546L1432.1 134.888C1430.83 137.869 1430.01 141.261 1429.64 145.063C1429.27 148.79 1429.08 155.126 1429.08 164.072H1467.55V167.985C1464.42 169.253 1461.25 170.333 1458.04 171.228C1454.84 172.048 1451.52 172.458 1448.09 172.458H1429.08V245.139ZM1537.54 280.584C1529.72 280.584 1522.45 279.019 1515.74 275.888C1509.03 272.757 1503.44 268.583 1498.97 263.365C1494.5 258.072 1490.99 252.071 1488.46 245.362C1485.92 238.579 1484.66 231.534 1484.66 224.229C1484.66 213.793 1486.18 204.438 1489.24 196.163C1492.3 187.889 1496.55 181.142 1501.99 175.924C1507.43 170.632 1513.76 166.606 1521 163.848C1528.3 161.09 1536.28 159.711 1544.92 159.711C1554.47 159.711 1564.31 161.463 1574.44 164.966L1567.18 192.361L1563.04 191.243C1563.86 183.416 1563.63 176.707 1562.37 171.116C1554.02 168.656 1546.45 167.426 1539.67 167.426C1526.55 167.426 1517.01 171.713 1511.04 180.285C1505.08 188.783 1502.1 201.381 1502.1 218.079C1502.1 233.659 1505.71 246.63 1512.94 256.991C1520.25 267.353 1529.46 272.534 1540.56 272.534C1554.35 272.534 1565.57 268.21 1574.22 259.563L1578.8 264.371C1573.21 270.186 1567.1 274.323 1560.47 276.783C1553.91 279.317 1546.27 280.584 1537.54 280.584ZM1689.28 197.952C1689.28 191.69 1688.68 186.584 1687.49 182.633C1686.3 178.608 1684.66 175.477 1682.57 173.241C1680.56 170.93 1678.17 169.327 1675.41 168.433C1672.73 167.538 1669.86 167.091 1666.8 167.091C1663.08 167.091 1659.57 167.426 1656.29 168.097C1653.09 168.768 1649.85 169.812 1646.57 171.228C1643.36 172.57 1640.08 174.284 1636.73 176.372C1633.37 178.384 1629.76 180.77 1625.88 183.528V260.681C1625.88 263.067 1626.07 265.005 1626.44 266.496C1626.81 267.912 1627.59 269.105 1628.79 270.074C1629.98 271.043 1631.66 271.9 1633.82 272.646C1635.98 273.391 1638.81 274.211 1642.32 275.105L1641.42 277.789C1637.1 277.193 1633.41 276.745 1630.35 276.447C1627.37 276.149 1624.35 276 1621.29 276C1618.24 276 1613.88 276.596 1608.21 277.789L1607.54 276.671C1609.03 274.509 1609.78 270.558 1609.78 264.818V130.862C1609.78 125.868 1609.52 121.693 1609 118.339C1608.55 114.984 1607.69 112.301 1606.42 110.288C1605.23 108.275 1603.55 106.859 1601.39 106.039C1599.23 105.219 1596.92 104.809 1594.46 104.809C1592.07 104.809 1590.62 104.846 1590.1 104.921L1589.65 102.908C1601.8 99.2555 1613.1 97.4292 1623.53 97.4292C1625.1 101.38 1625.88 105.629 1625.88 110.176V175.701C1631.02 172.197 1635.68 169.327 1639.86 167.091C1644.11 164.78 1648.06 162.954 1651.71 161.612C1655.44 160.27 1658.94 159.338 1662.22 158.816C1665.57 158.295 1668.97 158.034 1672.4 158.034C1677.09 158.034 1681.38 158.667 1685.25 159.935C1689.2 161.127 1692.6 163.14 1695.43 165.973C1698.26 168.731 1700.54 172.383 1702.25 176.931C1703.96 181.478 1704.97 187.106 1705.27 193.815V263.365C1705.27 265.154 1705.68 266.645 1706.5 267.837C1707.39 269.03 1708.51 270.036 1709.85 270.856C1711.27 271.676 1712.87 272.385 1714.66 272.981C1716.45 273.503 1718.31 274.062 1720.25 274.658L1719.25 277.342C1715.07 276.447 1710.19 276 1704.6 276C1699.01 276 1693.38 276.596 1687.71 277.789L1687.04 276.671C1688.53 274.509 1689.28 270.558 1689.28 264.818V197.952Z" fill="black"/>
</svg>
